<svg width="24" height="24" viewBox="0 0 24 24" fill="none" xmlns="http://www.w3.org/2000/svg">
<path fill-rule="evenodd" clip-rule="evenodd" d="M6.74263 0C3.01878 0 0 3.01878 0 6.74263V17.2574C0 20.9812 3.01878 24 6.74263 24H17.2574C20.9812 24 24 20.9812 24 17.2574V6.74263C24 3.01878 20.9812 0 17.2574 0H6.74263ZM6.64874 2.21618C4.20089 2.21618 2.21652 4.20056 2.21652 6.64841V17.3517C2.21652 19.7996 4.20089 21.784 6.64874 21.784H17.3049C19.7528 21.784 21.7371 19.7996 21.7371 17.3517V6.6484C21.7371 4.20056 19.7528 2.21618 17.3049 2.21618H6.64874Z" fill="#959698"/>
<path fill-rule="evenodd" clip-rule="evenodd" d="M11.9989 18.2004C15.3973 18.2004 18.1522 15.4455 18.1522 12.0472C18.1522 8.64882 15.3973 5.89392 11.9989 5.89392C8.6006 5.89392 5.8457 8.64882 5.8457 12.0472C5.8457 15.4455 8.6006 18.2004 11.9989 18.2004ZM11.9985 16.0315C14.225 16.0315 16.03 14.2266 16.03 12.0001C16.03 9.77356 14.225 7.96863 11.9985 7.96863C9.77204 7.96863 7.9671 9.77356 7.9671 12.0001C7.9671 14.2266 9.77204 16.0315 11.9985 16.0315Z" fill="#959698"/>
<circle cx="18.4596" cy="5.58753" r="1.43811" fill="#959698"/>
</svg>
